# xmcd
#
# Track frame offsets: 
#        150
#        14676
#        31985
#
# Disc length: 643 seconds
#
# Revision: 3
# Processed by: cddbd v1.5.2PL0 Copyright (c) Steve Scherf et al.
# Submitted via: ExactAudioCopy v1.0b3
#
DISCID=1d028103
DTITLE=Spoonleaf - Negativ
DYEAR=09
DGENRE=
TTITLE0=Umoran
TTITLE1=Nestani na tren
TTITLE2=Nisam
EXTD=
EXTT0=
EXTT1=
EXTT2=
PLAYORDER=
